<svg width="38" height="34" viewBox="0 0 38 34" fill="none" xmlns="http://www.w3.org/2000/svg">
<path d="M19.0149 8.57144e-07C18.9787 0.000450686 18.9427 0.00460817 18.9074 0.0124042C18.0621 0.0201974 17.2734 0.460775 16.8476 1.19848L8.57968 15.5208L0.311734 29.843H0.312263C-0.59255 31.4101 0.581313 33.4441 2.39062 33.4442H18.9265H35.4629C37.2722 33.4441 38.4466 31.4101 37.5418 29.843L29.2739 15.5208L21.0054 1.19848C20.6177 0.526741 19.9261 0.0968154 19.159 0.02119C19.1207 0.00986803 19.0812 0.00293272 19.0412 0.000517665H19.0402C19.0319 0.000152509 19.0236 -1.94281e-05 19.0154 1.74036e-06L19.0149 8.57144e-07Z" fill="black"/>
<path d="M18.9904 1.0579C18.4887 1.03419 18.0157 1.29263 17.7646 1.72768L9.49669 16.05L1.22875 30.3722C0.712077 31.2671 1.35774 32.3857 2.39091 32.3857H18.9268H35.4632C36.4964 32.3857 37.142 31.2671 36.6254 30.3722L28.3574 16.05L20.089 1.72768C19.8606 1.33197 19.4467 1.07961 18.9904 1.0579Z" fill="black"/>
<path d="M35.463 31.0435H18.9268H2.39062L10.6587 16.7211L18.9268 2.39862L27.1949 16.7211L35.463 31.0435Z" fill="#FCFF3C"/>
<path d="M14.9827 25.5V23.653L19.2982 19.6572C19.6652 19.302 19.973 18.9824 20.2217 18.6982C20.4742 18.4141 20.6656 18.1358 20.7959 17.8635C20.9261 17.5873 20.9912 17.2893 20.9912 16.9696C20.9912 16.6145 20.9103 16.3086 20.7485 16.0521C20.5867 15.7916 20.3657 15.5923 20.0855 15.4542C19.8053 15.3121 19.4876 15.2411 19.1324 15.2411C18.7614 15.2411 18.4378 15.3161 18.1616 15.466C17.8853 15.616 17.6722 15.8311 17.5222 16.1113C17.3723 16.3915 17.2973 16.725 17.2973 17.1117H14.8643C14.8643 16.3185 15.0438 15.6298 15.403 15.0457C15.7621 14.4617 16.2653 14.0098 16.9125 13.6901C17.5597 13.3704 18.3056 13.2106 19.1502 13.2106C20.0184 13.2106 20.7742 13.3645 21.4174 13.6724C22.0647 13.9762 22.5678 14.3985 22.927 14.9392C23.2861 15.4798 23.4657 16.0994 23.4657 16.798C23.4657 17.2558 23.3749 17.7076 23.1934 18.1536C23.0158 18.5996 22.6981 19.0948 22.2403 19.6395C21.7825 20.1801 21.1372 20.8293 20.3045 21.587L18.5345 23.3215V23.4044H23.6255V25.5H14.9827Z" fill="black"/>
</svg>
