<svg width="38" height="34" viewBox="0 0 38 34" fill="none" xmlns="http://www.w3.org/2000/svg">
<path d="M18.8391 33.4442C18.8753 33.4437 18.9113 33.4395 18.9466 33.4317C19.7919 33.424 20.5806 32.9834 21.0064 32.2457L29.2743 17.9234L37.5423 3.60111L37.5417 3.60111C38.4466 2.03407 37.2727 7.24284e-05 35.4634 -4.02369e-06L18.9275 -5.46931e-06L2.39108 -6.91496e-06C0.581775 8.06649e-05 -0.59261 2.03407 0.312209 3.60111L8.58015 17.9234L16.8486 32.2457C17.2363 32.9174 17.9279 33.3473 18.695 33.423C18.7333 33.4343 18.7728 33.4412 18.8128 33.4436L18.8138 33.4436C18.8221 33.444 18.8304 33.4442 18.8386 33.4441L18.8391 33.4442Z" fill="black"/>
<path d="M18.8641 32.3863C19.3658 32.41 19.8388 32.1515 20.0899 31.7165L28.3578 17.3942L36.6257 3.07191C37.1424 2.17709 36.4968 1.05847 35.4636 1.05843L18.9277 1.05842L2.39128 1.05842C1.35811 1.05847 0.712455 2.17709 1.22912 3.0719L9.49706 17.3942L17.7655 31.7165C17.9939 32.1122 18.4078 32.3645 18.8641 32.3863Z" fill="black"/>
<path d="M2.39102 2.40066L18.9272 2.40066L35.4634 2.40067L27.1953 16.7231L18.9272 31.0455L10.6591 16.7231L2.39102 2.40066Z" fill="#FE9D5D"/>
<path d="M19.5414 19.1658C18.6576 19.1658 17.8704 19.0139 17.1799 18.7101C16.4934 18.4023 15.9509 17.9801 15.5523 17.4435C15.1578 16.9029 14.9546 16.2795 14.9427 15.5732H17.5232C17.539 15.8691 17.6357 16.1296 17.8132 16.3545C17.9947 16.5754 18.2354 16.7471 18.5353 16.8694C18.8352 16.9917 19.1725 17.0529 19.5474 17.0529C19.938 17.0529 20.2832 16.9838 20.5831 16.8457C20.883 16.7076 21.1178 16.5162 21.2874 16.2716C21.4571 16.027 21.5419 15.7449 21.5419 15.4253C21.5419 15.1017 21.4512 14.8156 21.2697 14.5671C21.0921 14.3145 20.8356 14.1172 20.5003 13.9752C20.1688 13.8332 19.7742 13.7621 19.3165 13.7621H18.1861V11.88H19.3165C19.7032 11.88 20.0445 11.813 20.3405 11.6788C20.6403 11.5446 20.8731 11.3592 21.0388 11.1225C21.2046 10.8818 21.2874 10.6016 21.2874 10.282C21.2874 9.9782 21.2144 9.71187 21.0684 9.48302C20.9264 9.25022 20.7252 9.06872 20.4647 8.93851C20.2083 8.8083 19.9084 8.7432 19.5651 8.7432C19.2179 8.7432 18.9003 8.80633 18.6122 8.93259C18.3242 9.05491 18.0934 9.23049 17.9198 9.45934C17.7461 9.68819 17.6534 9.9565 17.6416 10.2643H15.1854C15.1972 9.56588 15.3965 8.95035 15.7832 8.41767C16.1698 7.885 16.6907 7.46873 17.3457 7.16886C18.0046 6.86504 18.7484 6.71313 19.577 6.71313C20.4134 6.71313 21.1454 6.86504 21.7727 7.16886C22.4001 7.47268 22.8874 7.88303 23.2346 8.39992C23.5858 8.91286 23.7594 9.48893 23.7555 10.1281C23.7594 10.8068 23.5483 11.373 23.1222 11.8268C22.7 12.2805 22.1496 12.5686 21.4709 12.6909V12.7856C22.3626 12.9 23.0413 13.2097 23.5069 13.7148C23.9764 14.2159 24.2092 14.8433 24.2053 15.5969C24.2092 16.2874 24.01 16.9009 23.6075 17.4376C23.209 17.9742 22.6586 18.3964 21.9562 18.7041C21.2539 19.0119 20.449 19.1658 19.5414 19.1658Z" fill="black"/>
</svg>
